<svg width="50" height="46" viewBox="0 0 50 46" fill="none" xmlns="http://www.w3.org/2000/svg">
<path d="M48.9924 11.6073C48.9924 10.2088 48.8653 8.81601 48.5054 7.45446C47.8592 4.97437 46.3356 3.07985 44.0556 1.68844C42.8827 0.97782 41.5918 0.541496 40.2198 0.311254C39.1662 0.14016 38.0997 0.0460688 37.0302 0.0298462C36.9506 0.02274 36.8633 0.00710625 36.7745 0H12.2271C11.9162 0.02274 11.6054 0.0369525 11.2945 0.051165C9.77093 0.132176 8.25652 0.279986 6.82021 0.812955C4.09305 1.81209 2.12234 3.55881 0.973898 6.07584C0.575773 6.92717 0.37518 7.82967 0.232773 8.74779C0.113336 9.48827 0.0490234 10.2358 0.0260547 10.9834C0.0260547 11.0431 0.0107422 11.1014 0.0107422 11.1611V34.3232L0.0582109 35.1233C0.162336 36.6711 0.376711 38.2032 1.07955 39.6244C2.40409 42.312 4.62899 44.0801 7.68384 44.9314C8.53674 45.1759 9.43099 45.2867 10.3237 45.3606C11.4568 45.4644 12.5884 45.4786 13.7216 45.4786H36.2432C37.312 45.4786 38.3808 45.4118 39.4496 45.2867C41.1325 45.0863 42.7112 44.6272 44.1398 43.7546C45.8309 42.7378 47.1643 41.2838 47.9756 39.5719C48.3584 38.7717 48.5743 37.9218 48.7336 37.0619C48.9648 35.7814 49.0123 34.4852 49.0123 33.1905C49.0046 25.9947 49.0123 18.8003 49.0046 11.6045L48.9924 11.6073ZM35.8803 19.1641V29.987C35.8803 30.7786 35.7608 31.556 35.378 32.2737C34.7885 33.3908 33.8315 34.0944 32.5467 34.4355C31.835 34.6248 31.1014 34.734 30.3616 34.7609C29.4314 34.812 28.5133 34.5437 27.7823 34.0073C27.0513 33.4708 26.5583 32.7036 26.3972 31.8516C26.2497 31.0851 26.3772 30.2948 26.7603 29.6021C27.1435 28.9094 27.761 28.3526 28.518 28.0171C29.1719 27.7215 29.8824 27.5438 30.5913 27.4102C31.3646 27.2553 32.1379 27.1146 32.9035 26.9512C33.4701 26.8332 33.8361 26.5148 33.9478 25.9733C33.98 25.8554 33.9876 25.7289 33.9876 25.6109V15.2927C33.9849 15.1749 33.9664 15.0579 33.9325 14.9444C33.8529 14.6559 33.6293 14.4854 33.3108 14.4996C32.9831 14.5138 32.6646 14.5664 32.3461 14.6261C30.7904 14.9075 29.2362 15.196 27.6881 15.4916L20.136 16.9058C20.1038 16.9129 20.064 16.9285 20.0318 16.9285C19.4653 17.0763 19.2662 17.3137 19.2417 17.8608C19.2341 17.9419 19.2417 18.0243 19.2417 18.1053C19.2341 23.0356 19.2417 27.9659 19.2341 32.8948C19.2341 33.695 19.1376 34.4795 18.7961 35.2186C18.2296 36.4323 17.2251 37.1955 15.8699 37.558C15.1535 37.7515 14.4137 37.8608 13.668 37.8834C11.7141 37.9502 10.0864 36.7436 9.75255 34.9599C9.46468 33.4207 10.2226 31.7621 12.1046 31.0216C12.838 30.7402 13.596 30.5853 14.3693 30.4375L16.1241 30.1049C16.905 29.95 17.3123 29.4909 17.3521 28.7505V11.6358C17.3521 11.3984 17.3843 11.1625 17.4394 10.9323C17.5834 10.3922 17.9983 10.0809 18.5557 9.95444C19.0748 9.82794 19.6092 9.73983 20.1344 9.63608C21.6335 9.35467 23.125 9.07326 24.6241 8.79896L29.2576 7.92489C30.6296 7.67333 31.9924 7.41466 33.3644 7.1631C33.8116 7.08209 34.2663 6.99255 34.7196 6.9627C35.3489 6.91154 35.7884 7.28106 35.8527 7.87372C35.868 8.01443 35.8772 8.15513 35.8772 8.29584V19.1556L35.8803 19.1641Z" fill="black"/>
</svg>
