<svg width="49" height="46" viewBox="0 0 49 46" fill="none" xmlns="http://www.w3.org/2000/svg">
<path d="M24.5055 11.5574C17.5531 11.5574 11.9453 16.7633 11.9453 23.2175C11.9453 29.6716 17.5531 34.8775 24.5055 34.8775C31.4578 34.8775 37.0656 29.6716 37.0656 23.2175C37.0656 16.7633 31.4578 11.5574 24.5055 11.5574ZM24.5055 30.798C20.0127 30.798 16.3397 27.3984 16.3397 23.2175C16.3397 19.0365 20.0017 15.6369 24.5055 15.6369C29.0092 15.6369 32.6712 19.0365 32.6712 23.2175C32.6712 27.3984 28.9983 30.798 24.5055 30.798V30.798ZM40.509 11.0804C40.509 12.5925 39.1973 13.8001 37.5794 13.8001C35.9506 13.8001 34.6498 12.5823 34.6498 11.0804C34.6498 9.57851 35.9616 8.36075 37.5794 8.36075C39.1973 8.36075 40.509 9.57851 40.509 11.0804ZM48.8278 13.8407C48.642 10.1975 47.7456 6.97047 44.8707 4.31169C42.0066 1.65291 38.5305 0.820767 34.6061 0.638103C30.5615 0.424994 18.4385 0.424994 14.3939 0.638103C10.4805 0.810619 7.00429 1.64276 4.12934 4.30154C1.25438 6.96032 0.368935 10.1874 0.17217 13.8305C-0.0573898 17.5853 -0.0573898 28.8395 0.17217 32.5942C0.358003 36.2374 1.25438 39.4644 4.12934 42.1232C7.00429 44.782 10.4695 45.6141 14.3939 45.7968C18.4385 46.0099 30.5615 46.0099 34.6061 45.7968C38.5305 45.6243 42.0066 44.7922 44.8707 42.1232C47.7347 39.4644 48.6311 36.2374 48.8278 32.5942C49.0574 28.8395 49.0574 17.5955 48.8278 13.8407V13.8407ZM43.6026 36.623C42.75 38.612 41.0993 40.1444 38.9458 40.9461C35.7211 42.1334 28.0691 41.8594 24.5055 41.8594C20.9418 41.8594 13.2789 42.1232 10.0651 40.9461C7.92253 40.1545 6.27189 38.6222 5.40831 36.623C4.12934 33.6293 4.42448 26.5257 4.42448 23.2175C4.42448 19.9092 4.14027 12.7954 5.40831 9.81192C6.26096 7.8229 7.9116 6.29055 10.0651 5.48886C13.2898 4.30154 20.9418 4.57554 24.5055 4.57554C28.0691 4.57554 35.732 4.31169 38.9458 5.48886C41.0884 6.2804 42.739 7.81276 43.6026 9.81192C44.8816 12.8056 44.5864 19.9092 44.5864 23.2175C44.5864 26.5257 44.8816 33.6395 43.6026 36.623Z" fill="url(#paint0_radial_13_74)"/>
<defs>
<radialGradient id="paint0_radial_13_74" cx="0" cy="0" r="1" gradientUnits="userSpaceOnUse" gradientTransform="translate(7 55.5) rotate(-55.4915) scale(77.6659 64.1634)">
<stop stop-color="#FDF497"/>
<stop offset="0.139829" stop-color="#FDF497"/>
<stop offset="0.352418" stop-color="#FD5949"/>
<stop offset="0.504157" stop-color="#D6249F"/>
<stop offset="0.8" stop-color="#285AEB"/>
<stop offset="1" stop-color="#1E1E1E" stop-opacity="0"/>
</radialGradient>
</defs>
</svg>
